<?xml version="1.0" encoding="UTF-8" standalone="yes"?>
<svg width="500" height="500" viewBox="0 0 500 500" version="1.2" baseProfile="tiny-ps" xmlns="http://www.w3.org/2000/svg">
  <title>George Witteman</title>
  <rect width="100%" height="100%" fill="#004D81"/>
  <path id="G" fill="#ffffff" fill-rule="evenodd" stroke="none" d="M 423.423187 413.692078 C 375.880188 439.096741 322.712616 451.798889 263.918976 451.798889 C 234.15921 451.798889 206.849594 446.990234 181.989319 437.372742 C 157.129028 427.755249 135.716843 414.145813 117.752113 396.544006 C 99.787384 378.9422 85.724297 357.802216 75.562431 333.123383 C 65.400566 308.44458 60.319706 281.04425 60.319706 250.921555 C 60.319706 220.073029 65.400566 192.037567 75.562431 166.814362 C 85.724297 141.591156 99.787384 120.088257 117.752113 102.304962 C 135.716843 84.521698 157.129028 70.821533 181.989319 61.204041 C 206.849594 51.586578 234.15921 46.777893 263.918976 46.777893 C 293.315796 46.777893 320.897583 50.316345 346.665192 57.393372 C 372.43277 64.470398 395.478088 77.081818 415.801849 95.227997 L 365.174225 146.399994 C 352.834808 134.423523 337.86441 125.169098 320.262604 118.636475 C 302.660797 112.103851 284.061249 108.837585 264.463348 108.837585 C 244.502533 108.837585 226.447342 112.376038 210.297241 119.453033 C 194.147125 126.53006 180.265503 136.328857 168.651932 148.849731 C 157.038376 161.370605 148.056137 175.978058 141.704971 192.672577 C 135.353806 209.367065 132.178268 227.331512 132.178268 246.566483 C 132.178268 267.253143 135.353806 286.306366 141.704971 303.726685 C 148.056137 321.147034 157.038376 336.20816 168.651932 348.910492 C 180.265503 361.612854 194.147125 371.593079 210.297241 378.851563 C 226.447342 386.110046 244.502533 389.739227 264.463348 389.739227 C 281.883698 389.739227 298.305756 388.106079 313.730011 384.839783 C 329.154266 381.573456 342.854462 376.492615 354.830933 369.597046 L 354.830933 278.685089 L 275.895386 278.685089 L 275.895386 216.625427 L 423.423187 216.625427 Z"/>
</svg>
